<?xml version="1.0" encoding="UTF-8" standalone="no"?>
<!DOCTYPE svg PUBLIC "-//W3C//DTD SVG 1.1//EN" "http://www.w3.org/Graphics/SVG/1.1/DTD/svg11.dtd">
<svg version="1.1" xmlns="http://www.w3.org/2000/svg" xmlns:xlink="http://www.w3.org/1999/xlink" preserveAspectRatio="xMidYMid meet" viewBox="0 0 640 640" width="640" height="640"><defs><path d="M320 480C320 568.31 248.31 640 160 640C71.69 640 0 568.31 0 480C0 391.69 71.69 320 160 320C248.31 320 320 391.69 320 480Z" id="c1MDPeDGrX"></path><path d="M320 160C320 248.31 248.31 320 160 320C71.69 320 0 248.31 0 160C0 71.69 71.69 0 160 0C248.31 0 320 71.69 320 160Z" id="b3G0F82dHs"></path><path d="M640 480C640 568.31 568.31 640 480 640C391.69 640 320 568.31 320 480C320 391.69 391.69 320 480 320C568.31 320 640 391.69 640 480Z" id="dzdoiNI3D"></path><path d="M640 160C640 248.31 568.31 320 480 320C391.69 320 320 248.31 320 160C320 71.69 391.69 0 480 0C568.31 0 640 71.69 640 160Z" id="a6bYf17wgu"></path></defs><g><g><g><use xlink:href="#c1MDPeDGrX" opacity="1" fill="#334e5d" fill-opacity="1"></use></g><g><use xlink:href="#b3G0F82dHs" opacity="1" fill="#d7e7e4" fill-opacity="1"></use></g><g><use xlink:href="#dzdoiNI3D" opacity="1" fill="#e0494b" fill-opacity="1"></use></g><g><use xlink:href="#a6bYf17wgu" opacity="1" fill="#7ea19b" fill-opacity="1"></use></g></g></g></svg>