<?xml version="1.0" encoding="UTF-8" standalone="no"?>
<!DOCTYPE svg PUBLIC "-//W3C//DTD SVG 1.1//EN" "http://www.w3.org/Graphics/SVG/1.1/DTD/svg11.dtd">
<svg version="1.1" xmlns="http://www.w3.org/2000/svg" xmlns:xlink="http://www.w3.org/1999/xlink" preserveAspectRatio="xMidYMid meet" viewBox="0 0 512 512" width="512" height="512"><defs><path d="M256 128C256 198.65 198.65 256 128 256C57.35 256 0 198.65 0 128C0 57.35 57.35 0 128 0C198.65 0 256 57.35 256 128Z" id="a5ezGlXoQB"></path><path d="M512 128C512 198.65 454.65 256 384 256C313.35 256 256 198.65 256 128C256 57.35 313.35 0 384 0C454.65 0 512 57.35 512 128Z" id="e1imn9lOVH"></path><path d="M256 384C256 454.65 198.65 512 128 512C57.35 512 0 454.65 0 384C0 313.35 57.35 256 128 256C198.65 256 256 313.35 256 384Z" id="aPKv9K3qP"></path><path d="M512 384C512 454.65 454.65 512 384 512C313.35 512 256 454.65 256 384C256 313.35 313.35 256 384 256C454.65 256 512 313.35 512 384Z" id="a6NBPgbIv"></path></defs><g><g><g><use xlink:href="#a5ezGlXoQB" opacity="1" fill="#e0494b" fill-opacity="1"></use></g><g><use xlink:href="#e1imn9lOVH" opacity="1" fill="#334e5d" fill-opacity="1"></use></g><g><use xlink:href="#aPKv9K3qP" opacity="1" fill="#7ea19b" fill-opacity="1"></use></g><g><use xlink:href="#a6NBPgbIv" opacity="1" fill="#ffffff" fill-opacity="1"></use></g></g></g></svg>